<?xml version="1.0" encoding="UTF-8" standalone="no"?>
<!-- Created with Inkscape (http://www.inkscape.org/) -->

<svg
   width="100"
   height="100"
   viewBox="0 0 26.458333 26.458333"
   version="1.1"
   id="svg1"
   xmlns="http://www.w3.org/2000/svg"
   xmlns:svg="http://www.w3.org/2000/svg">
  <defs
     id="defs1" />
  <g
     id="layer1">
    <path
       id="path1"
       style="fill:#000000;stroke:#ffffff;stroke-width:0.1"
       d="m 6.6044942,-5.7263864 -0.2625163,4.2302327 a 8.197504,8.197504 0 0 1 0.3720703,0.015503 l 0.092501,-4.2369506 a 12.433149,12.433149 0 0 0 -0.2020548,-0.00878 z M 4.2118753,-5.576008 a 12.433149,12.433149 0 0 0 -0.1999877,0.034106 l 0.622701,4.1919922 a 8.197504,8.197504 0 0 1 0.3674194,-0.062012 z m 4.966622,0.2087728 -1.1363648,4.0829549 a 8.197504,8.197504 0 0 1 0.3612183,0.092501 l 0.9715169,-4.1253296 a 12.433149,12.433149 0 0 0 -0.1963704,-0.050126 z m -7.4760295,0.4697387 a 12.433149,12.433149 0 0 0 -0.188619,0.074414 l 1.4810466,3.97133382 a 8.197504,8.197504 0 0 1 0.3462321,-0.13694255 z m 9.9198082,0.4165121 -1.9600873,3.75739337 a 8.197504,8.197504 0 0 1 0.3333129,0.16536458 L 11.80366,-4.3910674 a 12.433149,12.433149 0 0 0 -0.181384,-0.089917 z m -12.23284532,0.7689453 a 12.433149,12.433149 0 0 0 -0.16898193,0.1121378 L 1.4942118,-0.02337537 A 8.197504,8.197504 0 0 1 1.8047871,-0.22956434 Z M 13.827826,-3.1063913 11.129283,0.16162625 a 8.197504,8.197504 0 0 1 0.291971,0.23151042 l 2.565735,-3.37343747 a 12.433149,12.433149 0 0 0 -0.159163,-0.1260905 z m -16.4548097,1.0345621 a 12.433149,12.433149 0 0 0 -0.1421102,0.1446941 L 0.19920038,1.09852 A 8.197504,8.197504 0 0 1 0.4596496,0.83238634 Z m 18.3265297,0.7689454 -3.319177,2.635498 a 8.197504,8.197504 0 0 1 0.237712,0.287321 l 3.211173,-2.7662394 A 12.433149,12.433149 0 0 0 15.699546,-1.3028838 Z M -4.2584087,-0.04818006 A 12.433149,12.433149 0 0 0 -4.3669292,0.12286893 L -0.83484503,2.4653616 A 8.197504,8.197504 0 0 1 -0.635374,2.1506521 Z m 21.4141967,0.89865316 -3.7946,1.8877401 a 8.197504,8.197504 0 0 1 0.172599,0.3302124 l 3.716052,-2.0381185 a 12.433149,12.433149 0 0 0 -0.09405,-0.179834 z M -5.433014,2.2705415 A 12.433149,12.433149 0 0 0 -5.503811,2.460194 v 5.167e-4 l 3.9418783,1.5570109 a 8.197504,8.197504 0 0 1 0.1297078,-0.3493327 8.197504,8.197504 0 0 1 0,-5.167e-4 z m 23.56497,0.9890869 -4.104142,1.0572998 a 8.197504,8.197504 0 0 1 0.100252,0.3591512 l 4.058667,-1.2211141 a 12.433149,12.433149 0 0 0 0,-5.168e-4 12.433149,12.433149 0 0 0 -0.05478,-0.1948201 z M -6.1001567,4.7825328 a 12.433149,12.433149 0 0 0 -0.029456,0.2005046 l 4.1795899,0.7033162 a 8.197504,8.197504 0 0 1 0.05426,-0.3684529 z M 18.586192,5.8186453 14.351825,6.0000296 a 8.197504,8.197504 0 0 1 0.02325,0.3710368 L 18.599111,6.0207001 A 12.433149,12.433149 0 0 0 18.586192,5.8186453 Z M -2.0063498,7.0283906 -6.2303813,7.3787568 a 12.433149,12.433149 0 0 0 0.012919,0.2020548 L -1.9830954,7.3994274 A 8.197504,8.197504 0 0 1 -2.0063498,7.0283906 Z M 14.318752,7.7131033 a 8.197504,8.197504 0 0 1 -0.05426,0.368453 l 4.204394,0.5353678 a 12.433149,12.433149 0 0 0 0.02946,-0.2005046 z m -16.0780884,1.0102743 -4.058667,1.2211141 a 12.433149,12.433149 0 0 0 0,5.167e-4 12.433149,12.433149 0 0 0 0.054777,0.1948206 L -1.6590841,9.0825288 A 8.197504,8.197504 0 0 1 -1.7593364,8.7233776 Z M 13.930662,9.3817353 A 8.197504,8.197504 0 0 1 13.800954,9.731068 v 5.167e-4 l 4.00079,1.3973303 a 12.433149,12.433149 0 0 0 0.0708,-0.189652 12.433149,12.433149 0 0 0 0,-5.17e-4 z M -1.1650574,10.331031 -4.8811097,12.36915 a 12.433149,12.433149 0 0 0 0.094051,0.179834 l 3.79460045,-1.88774 A 8.197504,8.197504 0 0 1 -1.1650574,10.331031 Z m 14.3686324,0.603064 a 8.197504,8.197504 0 0 1 -0.199471,0.31471 l 3.623034,2.198832 a 12.433149,12.433149 0 0 0 0.108521,-0.171049 z m -13.45292605,0.845427 -3.21117355,2.766239 a 12.433149,12.433149 0 0 0 0.1297079,0.15658 l 3.31917723,-2.635498 A 8.197504,8.197504 0 0 1 -0.24935105,11.779522 Z M 12.169529,12.300937 a 8.197504,8.197504 0 0 1 -0.260449,0.266134 l 3.086633,2.904215 a 12.433149,12.433149 0 0 0 0.14211,-0.144694 z M 0.94747512,13.00632 -1.6182597,16.379758 a 12.433149,12.433149 0 0 0 0.1591634,0.12609 L 1.239447,13.237831 A 8.197504,8.197504 0 0 1 0.94747512,13.00632 Z m 9.92704288,0.416512 a 8.197504,8.197504 0 0 1 -0.310576,0.206189 l 2.415357,3.482475 a 12.433149,12.433149 0 0 0 0.168982,-0.112138 z m -8.5012901,0.534851 -1.80815838,3.832841 a 12.433149,12.433149 0 0 0 0.18138428,0.08992 l 1.9600871,-3.757393 a 8.197504,8.197504 0 0 1 -0.333313,-0.165365 z m 7.0006063,0.293523 a 8.197504,8.197504 0 0 1 -0.3462321,0.136942 l 1.6386599,3.908805 a 12.433149,12.433149 0 0 0 0.188619,-0.07441 z m -5.4084554,0.34003 -0.971517,4.12533 a 12.433149,12.433149 0 0 0 0.1963705,0.05013 L 4.326597,14.683737 a 8.197504,8.197504 0 0 1 -0.3612182,-0.0925 z m 3.7687622,0.15813 a 8.197504,8.197504 0 0 1 -0.3674195,0.06201 l 0.7901327,4.164087 a 12.433149,12.433149 0 0 0 0.1999878,-0.03411 z m -2.0794597,0.130742 -0.092501,4.23695 a 12.433149,12.433149 0 0 0 0.2020549,0.0088 l 0.2625162,-4.230232 a 8.197504,8.197504 0 0 1 -0.3720703,-0.0155 z"
       transform="translate(7.0448019,6.5294382)" />
    <path
       id="ellipse5"
       style="fill:#ffcc00;stroke:none;stroke-width:0.0937312"
       d="m 13.229167,5.584672 a 7.7228289,7.6445866 0 0 0 -1.080038,0.074931 l 0.531751,2.8029297 a 4.8466806,4.7975774 0 0 1 0.49506,-0.030489 l 0.176217,-2.8432373 a 7.7228289,7.6445866 0 0 0 -0.12299,-0.00413 z m 0.517798,0.017053 -0.06253,2.8509887 a 4.8466806,4.7975774 0 0 1 0.490409,0.071314 l 0.765328,-2.749703 A 7.7228289,7.6445866 0 0 0 13.746965,5.601725 Z m -1.985409,0.1322916 a 7.7228289,7.6445866 0 0 0 -1.165304,0.3085083 l 1.104326,2.6339478 a 4.8466806,4.7975774 0 0 1 0.478524,-0.1307414 z m 3.557406,0.151412 -0.651123,2.762622 a 4.8466806,4.7975774 0 0 1 0.467154,0.1700155 L 16.449642,6.2978068 A 7.7228289,7.6445866 0 0 0 15.318962,5.8854286 Z M 10.23245,6.1949707 a 7.7228289,7.6445866 0 0 0 -1.0805538,0.541569 l 1.6309078,2.3512777 a 4.8466806,4.7975774 0 0 1 0.443384,-0.2273763 z m 6.579444,0.2619995 -1.219047,2.5838216 a 4.8466806,4.7975774 0 0 1 0.42323,0.2635498 L 17.839738,7.0962077 A 7.7228289,7.6445866 0 0 0 16.811894,6.4569702 Z M 8.8216838,6.9515137 A 7.7228289,7.6445866 0 0 0 7.8796224,7.7152913 l 2.0882446,1.964738 a 4.8466806,4.7975774 0 0 1 0.388607,-0.3147095 z m 9.3286292,0.3860229 -1.73271,2.2784139 a 4.8466806,4.7975774 0 0 1 0.361735,0.3472656 L 19.026746,8.1788289 A 7.7228289,7.6445866 0 0 0 18.150313,7.3375366 Z M 7.6093547,8.001062 A 7.7228289,7.6445866 0 0 0 6.8362752,8.9400228 l 2.4561809,1.4903482 a 4.8466806,4.7975774 0 0 1 0.3162597,-0.39119 z M 19.266524,8.4904378 17.106966,10.351306 a 4.8466806,4.7975774 0 0 1 0.28267,0.417029 l 2.55695,-1.2722738 A 7.7228289,7.6445866 0 0 0 19.266524,8.4904378 Z M 6.6233683,9.2686849 A 7.7228289,7.6445866 0 0 0 6.0833496,10.361641 l 2.7052612,0.945162 A 4.8466806,4.7975774 0 0 1 9.0170207,10.856185 Z M 20.140373,9.8376424 17.628381,11.215853 a 4.8466806,4.7975774 0 0 1 0.189653,0.468705 l 2.787943,-0.718302 A 7.7228289,7.6445866 0 0 0 20.140373,9.8376424 Z M 5.9438232,10.728544 A 7.7228289,7.6445866 0 0 0 5.6223958,11.9078 l 2.8577067,0.363802 a 4.8466806,4.7975774 0 0 1 0.1286744,-0.490409 z m 14.7696408,0.61495 -2.756421,0.829406 a 4.8466806,4.7975774 0 0 1 0.0863,0.499711 l 2.867525,-0.122473 A 7.7228289,7.6445866 0 0 0 20.713464,11.343494 Z M 5.5640015,12.294857 a 7.7228289,7.6445866 0 0 0 -0.057878,0.93431 7.7228289,7.6445866 0 0 0 0.00568,0.288871 L 8.3829508,13.27981 a 4.8466806,4.7975774 0 0 1 -5.167e-4,-0.05064 4.8466806,4.7975774 0 0 1 0.022221,-0.45682 z m 15.3825235,0.645438 -2.871143,0.238229 a 4.8466806,4.7975774 0 0 1 5.17e-4,0.05064 4.8466806,4.7975774 0 0 1 -0.02222,0.456819 l 2.840654,0.477491 a 7.7228289,7.6445866 0 0 0 0.05788,-0.93431 7.7228289,7.6445866 0 0 0 -0.0057,-0.288872 z M 8.4149902,13.785722 5.5402303,13.908712 A 7.7228289,7.6445866 0 0 0 5.744869,15.11484 l 2.7564209,-0.829407 a 4.8466806,4.7975774 0 0 1 -0.0863,-0.499711 z m 9.5632408,0.401009 a 4.8466806,4.7975774 0 0 1 -0.128675,0.490409 l 2.664954,1.052649 a 7.7228289,7.6445866 0 0 0 0.321427,-1.179256 z M 8.6402995,14.773775 5.852356,15.492078 a 7.7228289,7.6445866 0 0 0 0.4656046,1.128613 L 8.829952,15.24248 A 4.8466806,4.7975774 0 0 1 8.6402995,14.773775 Z m 9.0294225,0.377755 a 4.8466806,4.7975774 0 0 1 -0.228409,0.450618 l 2.393652,1.5875 a 7.7228289,7.6445866 0 0 0 0.540019,-1.092956 z m -8.6010249,0.538468 -2.5569499,1.272274 a 7.7228289,7.6445866 0 0 0 0.6800619,1.005624 L 9.3513672,16.107027 A 4.8466806,4.7975774 0 0 1 9.0686971,15.689998 Z m 8.0971799,0.337964 a 4.8466806,4.7975774 0 0 1 -0.316259,0.391191 l 1.999361,2.038118 a 7.7228289,7.6445866 0 0 0 0.773079,-0.93896 z M 9.6789958,16.495117 7.4315877,18.279504 A 7.7228289,7.6445866 0 0 0 8.30802,19.120797 l 1.732711,-2.278414 A 4.8466806,4.7975774 0 0 1 9.6789958,16.495117 Z m 6.8114702,0.283187 a 4.8466806,4.7975774 0 0 1 -0.388606,0.31471 l 1.53479,2.413806 a 7.7228289,7.6445866 0 0 0 0.942061,-0.763778 z m -6.048209,0.375688 -1.8236616,2.208134 a 7.7228289,7.6445866 0 0 0 1.0278442,0.639237 l 1.2190474,-2.583821 a 4.8466806,4.7975774 0 0 1 -0.42323,-0.26355 z m 5.233272,0.216524 a 4.8466806,4.7975774 0 0 1 -0.443384,0.227376 l 0.993738,2.665471 a 7.7228289,7.6445866 0 0 0 1.080554,-0.541569 z m -4.352189,0.269751 -1.314649,2.52026 a 7.7228289,7.6445866 0 0 0 1.130681,0.412377 l 0.651123,-2.762622 A 4.8466806,4.7975774 0 0 1 11.32334,17.640267 Z m 3.434416,0.141593 a 4.8466806,4.7975774 0 0 1 -0.478524,0.130742 l 0.417545,2.811714 a 7.7228289,7.6445866 0 0 0 1.165304,-0.308508 z m -2.474268,0.152446 -0.765328,2.749703 a 7.7228289,7.6445866 0 0 0 1.193209,0.172599 l 0.06253,-2.850989 a 4.8466806,4.7975774 0 0 1 -0.490409,-0.07131 z m 1.493966,0.0615 a 4.8466806,4.7975774 0 0 1 -0.495061,0.03049 l -0.176216,2.843237 a 7.7228289,7.6445866 0 0 0 0.12299,0.0041 7.7228289,7.6445866 0 0 0 1.080037,-0.07493 z" />
    <path
       id="path7"
       style="fill:#1a1a1a;stroke:none;stroke-width:0.0990176"
       d="m 13.352156,5.5846719 -0.176734,2.846337 a 4.8466806,4.7975774 0 0 1 0.05374,-5.17e-4 4.8466806,4.7975774 0 0 1 0.455269,0.02119 l 0.06253,-2.850989 a 7.7228289,7.6445866 0 0 0 -0.394808,-0.01602 z m -1.203028,0.0739 a 7.7228289,7.6445866 0 0 0 -0.389123,0.0646 l 0.419096,2.821532 a 4.8466806,4.7975774 0 0 1 0.501778,-0.0832 z m 2.791044,0.114721 -0.765328,2.749703 a 4.8466806,4.7975774 0 0 1 0.49351,0.124024 l 0.654224,-2.777091 a 7.7228289,7.6445866 0 0 0 -0.382406,-0.09664 z m -4.343921,0.268201 a 7.7228289,7.6445866 0 0 0 -0.367419,0.142627 l 0.997355,2.675289 a 4.8466806,4.7975774 0 0 1 0.47439,-0.183968 z m 5.860625,0.241846 -1.321884,2.533695 a 4.8466806,4.7975774 0 0 1 0.457854,0.222726 l 1.219047,-2.583822 a 7.7228289,7.6445866 0 0 0 -0.355017,-0.172599 z m -7.3049805,0.452169 a 7.7228289,7.6445866 0 0 0 -0.330212,0.214974 l 1.5347895,2.413806 a 4.8466806,4.7975774 0 0 1 0.42633,-0.277503 z m 8.6878415,0.359668 -1.823661,2.208133 a 4.8466806,4.7975774 0 0 1 0.401526,0.311609 l 1.73271,-2.278413 a 7.7228289,7.6445866 0 0 0 -0.310575,-0.241329 z m -9.9601155,0.619083 a 7.7228289,7.6445866 0 0 0 -0.277502,0.278019 l 2.007113,2.0458711 a 4.8466806,4.7975774 0 0 1 0.358634,-0.3591521 z m 11.1471235,0.463538 -2.247408,1.784387 a 4.8466806,4.7975774 0 0 1 0.327628,0.3880901 l 2.172994,-1.8722371 a 7.7228289,7.6445866 0 0 0 -0.253214,-0.30024 z M 6.8362745,8.9389919 a 7.7228289,7.6445866 0 0 0 -0.212907,0.328662 l 2.393653,1.5875001 a 4.8466806,4.7975774 0 0 1 0.275435,-0.425814 z m 13.1273635,0.54777 -2.574003,1.2805421 a 4.8466806,4.7975774 0 0 1 0.238745,0.447518 L 20.148123,9.8324769 A 7.7228289,7.6445866 0 0 0 19.963638,9.4867619 Z M 6.0719805,10.356476 a 7.7228289,7.6445866 0 0 0 -0.13901,0.366903 l 2.675289,1.056783 a 4.8466806,4.7975774 0 0 1 0.180351,-0.474906 z m 14.5339955,0.608749 -2.787943,0.718302 a 4.8466806,4.7975774 0 0 1 0.139009,0.488342 l 2.756421,-0.829406 A 7.7228289,7.6445866 0 0 0 20.605976,10.965225 Z M 5.6223955,11.906769 a 7.7228289,7.6445866 0 0 0 -0.05839,0.387057 l 2.840653,0.47749 a 4.8466806,4.7975774 0 0 1 0.07545,-0.500745 z m 15.2988075,0.641822 -2.877861,0.122989 a 4.8466806,4.7975774 0 0 1 0.03204,0.505913 l 2.871143,-0.238229 a 7.7228289,7.6445866 0 0 0 -0.02532,-0.390673 z m -12.5382525,0.730188 -2.871143,0.238228 a 7.7228289,7.6445866 0 0 0 0.02532,0.390674 l 2.87786,-0.12299 a 4.8466806,4.7975774 0 0 1 -0.03204,-0.505912 z m 9.6707265,0.406176 a 4.8466806,4.7975774 0 0 1 -0.07545,0.500745 l 2.857706,0.363802 a 7.7228289,7.6445866 0 0 0 0.0584,-0.387056 z m -9.5523875,0.599447 -2.756421,0.829407 a 7.7228289,7.6445866 0 0 0 0.107487,0.377238 l 2.787944,-0.718303 a 4.8466806,4.7975774 0 0 1 -0.13901,-0.488342 z m 9.3487825,0.391707 a 4.8466806,4.7975774 0 0 1 -0.180351,0.474907 l 2.716631,0.948779 a 7.7228289,7.6445866 0 0 0 0.139009,-0.366903 z m -9.0201205,0.56534 -2.519743,1.382345 a 7.7228289,7.6445866 0 0 0 0.184485,0.345715 l 2.574003,-1.280542 a 4.8466806,4.7975774 0 0 1 -0.238745,-0.447518 z m 8.6113605,0.359668 a 4.8466806,4.7975774 0 0 1 -0.275436,0.425814 l 2.456181,1.490349 a 7.7228289,7.6445866 0 0 0 0.212907,-0.328663 z m -8.0899455,0.504879 -2.172994,1.872237 a 7.7228289,7.6445866 0 0 0 0.253215,0.30024 l 2.247408,-1.784387 a 4.8466806,4.7975774 0 0 1 -0.327629,-0.38809 z M 16.8491,16.418122 a 4.8466806,4.7975774 0 0 1 -0.358635,0.359151 l 2.088245,1.964738 a 7.7228289,7.6445866 0 0 0 0.277502,-0.278019 z m -6.80837,0.42323 -1.7327105,2.278414 a 7.7228289,7.6445866 0 0 0 0.310575,0.241329 L 10.442256,17.152961 A 4.8466806,4.7975774 0 0 1 10.04073,16.841352 Z m 6.061129,0.250631 a 4.8466806,4.7975774 0 0 1 -0.426331,0.277502 l 1.630908,2.351278 a 7.7228289,7.6445866 0 0 0 0.330213,-0.214974 z m -5.236373,0.324528 -1.2190465,2.583821 a 7.7228289,7.6445866 0 0 0 0.3550165,0.172599 l 1.321883,-2.533695 a 4.8466806,4.7975774 0 0 1 -0.457853,-0.222728 z m 4.366658,0.18035 a 4.8466806,4.7975774 0 0 1 -0.474389,0.183968 l 1.104325,2.633948 a 7.7228289,7.6445866 0 0 0 0.367419,-0.142627 z m -3.442167,0.21239 -0.654224,2.777092 a 7.7228289,7.6445866 0 0 0 0.382406,0.09663 l 0.765328,-2.749703 a 4.8466806,4.7975774 0 0 1 -0.49351,-0.124024 z m 2.489254,0.10232 a 4.8466806,4.7975774 0 0 1 -0.501778,0.0832 l 0.53175,2.802929 a 7.7228289,7.6445866 0 0 0 0.389124,-0.0646 z m -1.505335,0.09302 -0.06253,2.850989 a 7.7228289,7.6445866 0 0 0 0.394808,0.01602 l 0.176733,-2.846338 a 4.8466806,4.7975774 0 0 1 -0.05374,5.17e-4 4.8466806,4.7975774 0 0 1 -0.45527,-0.02119 z" />
    <path
       id="path14"
       style="fill:#000000;fill-opacity:1;stroke:none;stroke-width:0.0626104;stroke-dasharray:none;stroke-opacity:1"
       d="M 13.944053,8.5603549 A 4.7233124,4.7233124 0 0 0 8.5601379,12.513986 4.7233124,4.7233124 0 0 0 12.513771,17.8979 4.7233124,4.7233124 0 0 0 17.898195,13.944348 4.7233124,4.7233124 0 0 0 13.944053,8.5603549 Z m -0.02861,0.1524543 a 4.5411038,4.5411038 0 0 1 1.124858,0.3254786 4.5411038,4.5411038 0 0 0 -4.004761,3.8271602 4.5411038,4.5411038 0 0 0 2.67549,4.850934 4.5411038,4.5411038 0 0 1 -1.170708,-0.02615 4.5411038,4.5411038 0 0 1 -3.8008591,-5.17649 4.5411038,4.5411038 0 0 1 5.1759801,-3.8009368 z" />
  </g>
</svg>
