<?xml version="1.0" encoding="UTF-8" standalone="no"?>
<!-- Created with Inkscape (http://www.inkscape.org/) -->

<svg
   width="100"
   height="100"
   viewBox="0 0 26.458333 26.458333"
   version="1.1"
   id="svg1"
   xmlns="http://www.w3.org/2000/svg"
   xmlns:svg="http://www.w3.org/2000/svg">
  <defs
     id="defs1" />
  <g
     id="layer1">
    <path
       id="path14"
       style="fill:#000000;fill-opacity:1;stroke:none;stroke-width:0.0626104;stroke-dasharray:none;stroke-opacity:1"
       d="M 13.944053,8.5603547 A 4.7233124,4.7233124 0 0 0 8.5601381,12.513986 4.7233124,4.7233124 0 0 0 12.513771,17.8979 4.7233124,4.7233124 0 0 0 17.898195,13.944348 4.7233124,4.7233124 0 0 0 13.944053,8.5603547 Z M 13.91544,8.712809 a 4.5411038,4.5411038 0 0 1 1.124858,0.3254786 4.5411038,4.5411038 0 0 0 -4.004761,3.8271604 4.5411038,4.5411038 0 0 0 2.67549,4.850934 4.5411038,4.5411038 0 0 1 -1.170708,-0.02615 4.5411038,4.5411038 0 0 1 -3.8008591,-5.17649 4.5411038,4.5411038 0 0 1 5.1759801,-3.800937 z" />
    <path
       id="path1"
       style="fill:#000000;stroke:#ffffff;stroke-width:0.1"
       d="m 6.6044942,-5.7263864 -0.2625163,4.2302327 a 8.197504,8.197504 0 0 1 0.3720703,0.015503 l 0.092501,-4.2369506 a 12.433149,12.433149 0 0 0 -0.2020548,-0.00878 z M 4.2118753,-5.576008 a 12.433149,12.433149 0 0 0 -0.1999877,0.034106 l 0.622701,4.1919922 a 8.197504,8.197504 0 0 1 0.3674194,-0.062012 z m 4.966622,0.2087728 -1.1363648,4.0829549 a 8.197504,8.197504 0 0 1 0.3612183,0.092501 l 0.9715169,-4.1253296 a 12.433149,12.433149 0 0 0 -0.1963704,-0.050126 z m -7.4760295,0.4697387 a 12.433149,12.433149 0 0 0 -0.188619,0.074414 l 1.4810466,3.97133382 a 8.197504,8.197504 0 0 1 0.3462321,-0.13694255 z m 9.9198082,0.4165121 -1.9600873,3.75739337 a 8.197504,8.197504 0 0 1 0.3333129,0.16536458 L 11.80366,-4.3910674 a 12.433149,12.433149 0 0 0 -0.181384,-0.089917 z m -12.23284532,0.7689453 a 12.433149,12.433149 0 0 0 -0.16898193,0.1121378 L 1.4942118,-0.02337537 A 8.197504,8.197504 0 0 1 1.8047871,-0.22956434 Z M 13.827826,-3.1063913 11.129283,0.16162625 a 8.197504,8.197504 0 0 1 0.291971,0.23151042 l 2.565735,-3.37343747 a 12.433149,12.433149 0 0 0 -0.159163,-0.1260905 z m -16.4548097,1.0345621 a 12.433149,12.433149 0 0 0 -0.1421102,0.1446941 L 0.19920038,1.09852 A 8.197504,8.197504 0 0 1 0.4596496,0.83238634 Z m 18.3265297,0.7689454 -3.319177,2.635498 a 8.197504,8.197504 0 0 1 0.237712,0.287321 l 3.211173,-2.7662394 A 12.433149,12.433149 0 0 0 15.699546,-1.3028838 Z M -4.2584087,-0.04818006 A 12.433149,12.433149 0 0 0 -4.3669292,0.12286893 L -0.83484503,2.4653616 A 8.197504,8.197504 0 0 1 -0.635374,2.1506521 Z m 21.4141967,0.89865316 -3.7946,1.8877401 a 8.197504,8.197504 0 0 1 0.172599,0.3302124 l 3.716052,-2.0381185 a 12.433149,12.433149 0 0 0 -0.09405,-0.179834 z M -5.433014,2.2705415 A 12.433149,12.433149 0 0 0 -5.503811,2.460194 v 5.167e-4 l 3.9418783,1.5570109 a 8.197504,8.197504 0 0 1 0.1297078,-0.3493327 8.197504,8.197504 0 0 1 0,-5.167e-4 z m 23.56497,0.9890869 -4.104142,1.0572998 a 8.197504,8.197504 0 0 1 0.100252,0.3591512 l 4.058667,-1.2211141 a 12.433149,12.433149 0 0 0 0,-5.168e-4 12.433149,12.433149 0 0 0 -0.05478,-0.1948201 z M -6.1001567,4.7825328 a 12.433149,12.433149 0 0 0 -0.029456,0.2005046 l 4.1795899,0.7033162 a 8.197504,8.197504 0 0 1 0.05426,-0.3684529 z M 18.586192,5.8186453 14.351825,6.0000296 a 8.197504,8.197504 0 0 1 0.02325,0.3710368 L 18.599111,6.0207001 A 12.433149,12.433149 0 0 0 18.586192,5.8186453 Z M -2.0063498,7.0283906 -6.2303813,7.3787568 a 12.433149,12.433149 0 0 0 0.012919,0.2020548 L -1.9830954,7.3994274 A 8.197504,8.197504 0 0 1 -2.0063498,7.0283906 Z M 14.318752,7.7131033 a 8.197504,8.197504 0 0 1 -0.05426,0.368453 l 4.204394,0.5353678 a 12.433149,12.433149 0 0 0 0.02946,-0.2005046 z m -16.0780884,1.0102743 -4.058667,1.2211141 a 12.433149,12.433149 0 0 0 0,5.167e-4 12.433149,12.433149 0 0 0 0.054777,0.1948206 L -1.6590841,9.0825288 A 8.197504,8.197504 0 0 1 -1.7593364,8.7233776 Z M 13.930662,9.3817353 A 8.197504,8.197504 0 0 1 13.800954,9.731068 v 5.167e-4 l 4.00079,1.3973303 a 12.433149,12.433149 0 0 0 0.0708,-0.189652 12.433149,12.433149 0 0 0 0,-5.17e-4 z M -1.1650574,10.331031 -4.8811097,12.36915 a 12.433149,12.433149 0 0 0 0.094051,0.179834 l 3.79460045,-1.88774 A 8.197504,8.197504 0 0 1 -1.1650574,10.331031 Z m 14.3686324,0.603064 a 8.197504,8.197504 0 0 1 -0.199471,0.31471 l 3.623034,2.198832 a 12.433149,12.433149 0 0 0 0.108521,-0.171049 z m -13.45292605,0.845427 -3.21117355,2.766239 a 12.433149,12.433149 0 0 0 0.1297079,0.15658 l 3.31917723,-2.635498 A 8.197504,8.197504 0 0 1 -0.24935105,11.779522 Z M 12.169529,12.300937 a 8.197504,8.197504 0 0 1 -0.260449,0.266134 l 3.086633,2.904215 a 12.433149,12.433149 0 0 0 0.14211,-0.144694 z M 0.94747512,13.00632 -1.6182597,16.379758 a 12.433149,12.433149 0 0 0 0.1591634,0.12609 L 1.239447,13.237831 A 8.197504,8.197504 0 0 1 0.94747512,13.00632 Z m 9.92704288,0.416512 a 8.197504,8.197504 0 0 1 -0.310576,0.206189 l 2.415357,3.482475 a 12.433149,12.433149 0 0 0 0.168982,-0.112138 z m -8.5012901,0.534851 -1.80815838,3.832841 a 12.433149,12.433149 0 0 0 0.18138428,0.08992 l 1.9600871,-3.757393 a 8.197504,8.197504 0 0 1 -0.333313,-0.165365 z m 7.0006063,0.293523 a 8.197504,8.197504 0 0 1 -0.3462321,0.136942 l 1.6386599,3.908805 a 12.433149,12.433149 0 0 0 0.188619,-0.07441 z m -5.4084554,0.34003 -0.971517,4.12533 a 12.433149,12.433149 0 0 0 0.1963705,0.05013 L 4.326597,14.683737 a 8.197504,8.197504 0 0 1 -0.3612182,-0.0925 z m 3.7687622,0.15813 a 8.197504,8.197504 0 0 1 -0.3674195,0.06201 l 0.7901327,4.164087 a 12.433149,12.433149 0 0 0 0.1999878,-0.03411 z m -2.0794597,0.130742 -0.092501,4.23695 a 12.433149,12.433149 0 0 0 0.2020549,0.0088 l 0.2625162,-4.230232 a 8.197504,8.197504 0 0 1 -0.3720703,-0.0155 z"
       transform="translate(7.0448019,6.5294382)" />
    <path
       id="circle2"
       style="fill:#1a1a1a;stroke:none;stroke-width:0.0990176"
       d="M 13.381612,5.113383 13.17594,8.4320435 a 4.8466806,4.7975774 0 0 1 0.05323,-5.168e-4 4.8466806,4.7975774 0 0 1 0.455269,0.021187 l 0.07286,-3.323311 a 8.1169786,8.1169786 0 0 0 -0.375688,-0.01602 z m -1.320333,0.083199 a 8.1169786,8.1169786 0 0 0 -0.37052,0.062528 l 0.488343,3.2866211 a 4.8466806,4.7975774 0 0 1 0.501778,-0.083199 z m 3.004468,0.1260905 -0.890902,3.201355 a 4.8466806,4.7975774 0 0 1 0.492994,0.1240234 4.8466806,4.7975774 0 0 1 5.16e-4,0 l 0.761194,-3.231844 a 8.1169786,8.1169786 0 0 0 -0.363802,-0.093534 z m -4.648812,0.2924886 a 8.1169786,8.1169786 0 0 0 -0.349332,0.1379761 l 1.158585,3.1073039 a 4.8466806,4.7975774 0 0 1 0.47439,-0.1839681 z m 6.252332,0.2619995 -1.534274,2.9409058 a 4.8466806,4.7975774 0 0 1 0.457854,0.2227254 l 1.41335,-2.9961995 A 8.1169786,8.1169786 0 0 0 16.669267,5.8771606 Z M 8.8950643,6.3660197 a 8.1169786,8.1169786 0 0 0 -0.3131592,0.208256 l 1.7745689,2.7910441 a 4.8466806,4.7975774 0 0 1 0.42633,-0.2775024 z m 9.2278607,0.3870565 -2.106848,2.5512654 a 4.8466806,4.7975774 0 0 1 0.401526,0.3116089 L 18.416964,6.9866536 A 8.1169786,8.1169786 0 0 0 18.122925,6.7530762 Z M 7.5628459,7.4171183 A 8.1169786,8.1169786 0 0 0 7.3003296,7.685319 l 2.308903,2.353862 A 4.8466806,4.7975774 0 0 1 9.967867,9.6800293 Z M 19.362126,7.9121785 16.779338,9.9626994 a 4.8466806,4.7975774 0 0 1 0.327628,0.3886066 L 19.601904,8.2015666 A 8.1169786,8.1169786 0 0 0 19.362126,7.9121785 Z M 6.4781576,8.722465 A 8.1169786,8.1169786 0 0 0 6.2771362,9.0392415 L 9.0170207,10.856185 A 4.8466806,4.7975774 0 0 1 9.2924561,10.430371 Z M 20.333643,9.3038249 17.389636,10.768335 a 4.8466806,4.7975774 0 0 1 0.238745,0.447518 L 20.507792,9.6361043 A 8.1169786,8.1169786 0 0 0 20.333643,9.3038249 Z M 5.6890584,10.223665 a 8.1169786,8.1169786 0 0 0 -0.1312581,0.352434 l 3.0504598,1.205094 a 4.8466806,4.7975774 0 0 1 0.1803507,-0.474906 z m 15.3055256,0.642338 -3.17655,0.818555 A 4.8466806,4.7975774 0 0 1 17.957043,12.1729 L 21.09587,11.228255 A 8.1169786,8.1169786 0 0 0 20.994584,10.866003 Z M 5.2291382,11.857674 a 8.1169786,8.1169786 0 0 0 -0.055294,0.371037 8.1169786,8.1169786 0 0 0 0,5.17e-4 l 3.2308105,0.543119 a 4.8466806,4.7975774 0 0 1 0.075448,-0.500745 z m 16.0868738,0.674894 -3.272669,0.140043 a 4.8466806,4.7975774 0 0 1 0.03204,0.505913 l 3.264401,-0.270785 a 8.1169786,8.1169786 0 0 0 -0.02377,-0.375171 z M 8.3829508,13.27981 5.1185506,13.550594 a 8.1169786,8.1169786 0 0 0 0.023771,0.375171 L 8.4149902,13.785722 A 4.8466806,4.7975774 0 0 1 8.3829508,13.27981 Z m 9.6707272,0.406176 a 4.8466806,4.7975774 0 0 1 -0.07545,0.500745 l 3.250964,0.413928 a 8.1169786,8.1169786 0 0 0 0.05529,-0.371037 v -5.16e-4 z M 8.5012899,14.285433 5.3624634,15.230078 A 8.1169786,8.1169786 0 0 0 5.4637492,15.59233 L 8.6402995,14.773775 A 4.8466806,4.7975774 0 0 1 8.5012899,14.285433 Z m 9.3487831,0.391707 a 4.8466806,4.7975774 0 0 1 -0.180351,0.474907 l 3.099553,1.082621 a 8.1169786,8.1169786 0 0 0 0.131258,-0.352433 z m -9.020121,0.56534 -2.8794108,1.579749 a 8.1169786,8.1169786 0 0 0 0.1741496,0.332279 l 2.9440063,-1.46451 A 4.8466806,4.7975774 0 0 1 8.829952,15.24248 Z m 8.611361,0.359668 a 4.8466806,4.7975774 0 0 1 -0.275436,0.425814 l 2.814299,1.707906 a 8.1169786,8.1169786 0 0 0 0.201021,-0.316776 z m -8.0899458,0.504879 -2.4949382,2.14974 a 8.1169786,8.1169786 0 0 0 0.2397787,0.289388 L 9.6789958,16.495634 A 4.8466806,4.7975774 0 0 1 9.3513672,16.107027 Z m 7.4977338,0.312126 a 4.8466806,4.7975774 0 0 1 -0.358635,0.359151 l 2.405021,2.262911 a 8.1169786,8.1169786 0 0 0 0.262517,-0.268201 z m -6.80837,0.42323 -1.9993614,2.629297 a 8.1169786,8.1169786 0 0 0 0.2940389,0.233577 l 2.1068485,-2.551265 a 4.8466806,4.7975774 0 0 1 -0.401526,-0.311609 z m 6.061129,0.251147 a 4.8466806,4.7975774 0 0 1 -0.426331,0.276986 l 1.88774,2.721798 a 8.1169786,8.1169786 0 0 0 0.313159,-0.208256 z m -5.236373,0.324012 -1.4133508,2.996199 a 8.1169786,8.1169786 0 0 0 0.3369304,0.167432 L 11.32334,17.640267 a 4.8466806,4.7975774 0 0 1 -0.457853,-0.222725 z m 4.366658,0.18035 a 4.8466806,4.7975774 0 0 1 -0.474389,0.183968 l 1.283642,3.061312 a 8.1169786,8.1169786 0 0 0 0.349333,-0.137976 z m -3.442167,0.21239 -0.761194,3.231844 a 8.1169786,8.1169786 0 0 0 0.363802,0.09353 l 0.890902,-3.201355 a 4.8466806,4.7975774 0 0 1 -0.492993,-0.124024 z m 2.489254,0.10232 a 4.8466806,4.7975774 0 0 1 -0.501778,0.0832 l 0.6196,3.26595 a 8.1169786,8.1169786 0 0 0 0.37052,-0.06253 z m -1.505335,0.09302 -0.07286,3.323312 a 8.1169786,8.1169786 0 0 0 0.375687,0.01602 l 0.205672,-3.31866 a 4.8466806,4.7975774 0 0 1 -0.05323,5.17e-4 4.8466806,4.7975774 0 0 1 -0.45527,-0.02119 z" />
  </g>
</svg>
